<svg width="24" height="24" fill="none" xmlns="http://www.w3.org/2000/svg"><path clip-rule="evenodd" d="M20 16.003v2.413a1.61 1.61 0 0 1-1.754 1.61 15.921 15.921 0 0 1-6.943-2.47 15.688 15.688 0 0 1-4.827-4.827 15.92 15.92 0 0 1-2.47-6.975A1.609 1.609 0 0 1 5.608 4h2.414A1.609 1.609 0 0 1 9.63 5.384c.102.772.29 1.53.563 2.26.221.588.08 1.251-.362 1.698l-1.022 1.021a12.872 12.872 0 0 0 4.827 4.827l1.022-1.021a1.61 1.61 0 0 1 1.697-.362c.73.272 1.488.46 2.26.563A1.609 1.609 0 0 1 20 16.003Z" stroke="#9DA4BD" stroke-linecap="round" stroke-linejoin="round"/></svg>